<svg width="47" height="16" viewBox="0 0 47 16" fill="none" xmlns="http://www.w3.org/2000/svg">
<path d="M38.6077 14.2094C37.191 14.2094 35.8851 13.7282 34.8409 12.9214C35.9006 11.5632 36.5349 9.85504 36.5349 8C36.5349 6.14512 35.9006 4.43696 34.8409 3.07856C35.8851 2.272 37.191 1.79056 38.6077 1.79056C42.0197 1.79056 44.7956 4.57616 44.7956 8C44.7956 11.424 42.0197 14.2094 38.6077 14.2094ZM24.7956 12.9214C25.8555 11.5632 26.4898 9.85504 26.4898 8C26.4898 6.14512 25.8555 4.43696 24.7958 3.07856C25.8399 2.272 27.146 1.79056 28.5626 1.79056C29.9792 1.79056 31.2851 2.272 32.3293 3.07856C31.2696 4.43696 30.6354 6.14512 30.6354 8C30.6354 9.85504 31.2696 11.5632 32.3293 12.9214C31.2851 13.7282 29.9792 14.2094 28.5626 14.2094C27.146 14.2094 25.8399 13.7282 24.7956 12.9214ZM14.7505 12.9214C15.8104 11.5632 16.4446 9.85504 16.4446 8C16.4446 6.14512 15.8104 4.43696 14.7507 3.07856C15.7947 2.272 17.1009 1.79056 18.5174 1.79056C19.934 1.79056 21.2402 2.272 22.2842 3.07856C21.2245 4.43696 20.5902 6.14512 20.5902 8C20.5902 9.85504 21.2245 11.5632 22.2842 12.9214C21.2402 13.7282 19.934 14.2094 18.5174 14.2094C17.1009 14.2094 15.7947 13.7282 14.7505 12.9214ZM2.28436 8C2.28436 4.57616 5.06033 1.79056 8.47232 1.79056C9.88884 1.79056 11.195 2.272 12.2391 3.07856C11.1794 4.43696 10.5451 6.14512 10.5451 8C10.5451 9.85504 11.1794 11.5632 12.2391 12.9214C11.195 13.7282 9.88884 14.2094 8.47232 14.2094C5.06033 14.2094 2.28436 11.424 2.28436 8ZM13.4949 11.6203C12.7625 10.6003 12.3295 9.3504 12.3295 8C12.3295 6.64976 12.7625 5.39968 13.4949 4.37968C14.2272 5.39968 14.6603 6.64976 14.6603 8C14.6603 9.3504 14.2272 10.6003 13.4949 11.6203ZM23.54 11.6203C22.8077 10.6003 22.3746 9.3504 22.3746 8C22.3746 6.64976 22.8077 5.39968 23.54 4.37968C24.2723 5.39968 24.7054 6.64976 24.7054 8C24.7054 9.3504 24.2723 10.6003 23.54 11.6203ZM33.5851 11.6203C32.8528 10.6003 32.4197 9.3504 32.4197 8C32.4197 6.64976 32.8528 5.39968 33.5851 4.37968C34.3175 5.39968 34.7505 6.64976 34.7505 8C34.7505 9.3504 34.3175 10.6003 33.5851 11.6203ZM38.6077 0C36.7052 0 34.957 0.673119 33.5851 1.79312C32.2133 0.673119 30.4651 0 28.5626 0C26.6601 0 24.9119 0.673119 23.54 1.79312C22.1681 0.673119 20.4198 0 18.5174 0C16.6149 0 14.8668 0.673119 13.4949 1.79312C12.123 0.673119 10.3747 0 8.47232 0C4.07638 0 0.5 3.5888 0.5 8C0.5 12.4114 4.07638 16 8.47232 16C10.3747 16 12.123 15.327 13.4949 14.2069C14.8668 15.327 16.6149 16 18.5174 16C20.4198 16 22.1681 15.327 23.54 14.2069C24.9119 15.327 26.6601 16 28.5626 16C30.4651 16 32.2133 15.327 33.5851 14.2069C34.957 15.327 36.7052 16 38.6077 16C43.0036 16 46.58 12.4114 46.58 8C46.58 3.5888 43.0036 0 38.6077 0Z" fill="black"/>
</svg>
